<svg xmlns="http://www.w3.org/2000/svg" viewBox="0 0 940 560" width="940" height="560" font-family="Segoe UI, system-ui, -apple-system, sans-serif">
  <rect width="940" height="560" fill="#ffffff"/>
  <text x="30" y="34" font-size="17" font-weight="600" fill="#1b2430">Figura 7 — I nove elementi</text>
  <text x="30" y="55" font-size="12.5" fill="#6b7684">Ognuno corrisponde a un elemento della specifica SVG.</text>
  <rect x="30" y="78" width="270" height="138" rx="8" fill="#ffffff" stroke="#e3e6ea" stroke-width="1"/>
  <rect x="39" y="87" width="140" height="120" fill="#fbfcfd"/>
  <g transform="translate(39,87)"><rect x="20" y="30" width="100" height="60" fill="#dc1822"/></g>
  <text x="190" y="128" font-size="12" fill="#1b2430" font-weight="650" text-anchor="start">Rettangolo</text>
  <text x="190" y="148" font-size="10" fill="#6b7684" font-family="Consolas, monospace">&lt;rect&gt;</text>
  <rect x="330" y="78" width="270" height="138" rx="8" fill="#ffffff" stroke="#e3e6ea" stroke-width="1"/>
  <rect x="339" y="87" width="140" height="120" fill="#fbfcfd"/>
  <g transform="translate(339,87)"><circle cx="70" cy="60" r="40" fill="#dc1822"/></g>
  <text x="490" y="128" font-size="12" fill="#1b2430" font-weight="650" text-anchor="start">Cerchio</text>
  <text x="490" y="148" font-size="10" fill="#6b7684" font-family="Consolas, monospace">&lt;circle&gt;</text>
  <rect x="630" y="78" width="270" height="138" rx="8" fill="#ffffff" stroke="#e3e6ea" stroke-width="1"/>
  <rect x="639" y="87" width="140" height="120" fill="#fbfcfd"/>
  <g transform="translate(639,87)"><ellipse cx="70" cy="60" rx="55" ry="32" fill="#dc1822"/></g>
  <text x="790" y="128" font-size="12" fill="#1b2430" font-weight="650" text-anchor="start">Ellisse</text>
  <text x="790" y="148" font-size="10" fill="#6b7684" font-family="Consolas, monospace">&lt;ellipse&gt;</text>
  <rect x="30" y="236" width="270" height="138" rx="8" fill="#ffffff" stroke="#e3e6ea" stroke-width="1"/>
  <rect x="39" y="245" width="140" height="120" fill="#fbfcfd"/>
  <g transform="translate(39,245)"><line x1="20" y1="95" x2="120" y2="25" stroke="#1b2430" stroke-width="6"/></g>
  <text x="190" y="286" font-size="12" fill="#1b2430" font-weight="650" text-anchor="start">Linea</text>
  <text x="190" y="306" font-size="10" fill="#6b7684" font-family="Consolas, monospace">&lt;line&gt;</text>
  <rect x="330" y="236" width="270" height="138" rx="8" fill="#ffffff" stroke="#e3e6ea" stroke-width="1"/>
  <rect x="339" y="245" width="140" height="120" fill="#fbfcfd"/>
  <g transform="translate(339,245)"><path d="M20 90 C 45 20, 95 100, 120 30" stroke="#3b6ef5" stroke-width="6" fill="none"/></g>
  <text x="490" y="286" font-size="12" fill="#1b2430" font-weight="650" text-anchor="start">Tracciato</text>
  <text x="490" y="306" font-size="10" fill="#6b7684" font-family="Consolas, monospace">&lt;path&gt;</text>
  <rect x="630" y="236" width="270" height="138" rx="8" fill="#ffffff" stroke="#e3e6ea" stroke-width="1"/>
  <rect x="639" y="245" width="140" height="120" fill="#fbfcfd"/>
  <g transform="translate(639,245)"><polygon points="70,20 118,55 100,100 40,100 22,55" fill="#1f9d6b"/></g>
  <text x="790" y="286" font-size="12" fill="#1b2430" font-weight="650" text-anchor="start">Poligono</text>
  <text x="790" y="306" font-size="10" fill="#6b7684" font-family="Consolas, monospace">&lt;polygon&gt;</text>
  <rect x="30" y="394" width="270" height="138" rx="8" fill="#ffffff" stroke="#e3e6ea" stroke-width="1"/>
  <rect x="39" y="403" width="140" height="120" fill="#fbfcfd"/>
  <g transform="translate(39,403)"><polyline points="20,95 50,40 75,80 120,25" stroke="#1f9d6b" stroke-width="6" fill="none"/></g>
  <text x="190" y="444" font-size="12" fill="#1b2430" font-weight="650" text-anchor="start">Spezzata</text>
  <text x="190" y="464" font-size="10" fill="#6b7684" font-family="Consolas, monospace">&lt;polyline&gt;</text>
  <rect x="330" y="394" width="270" height="138" rx="8" fill="#ffffff" stroke="#e3e6ea" stroke-width="1"/>
  <rect x="339" y="403" width="140" height="120" fill="#fbfcfd"/>
  <g transform="translate(339,403)"><text x="70" y="78" font-size="42" font-weight="700" fill="#1b2430" text-anchor="middle">Abc</text></g>
  <text x="490" y="444" font-size="12" fill="#1b2430" font-weight="650" text-anchor="start">Testo</text>
  <text x="490" y="464" font-size="10" fill="#6b7684" font-family="Consolas, monospace">&lt;text&gt;</text>
  <rect x="630" y="394" width="270" height="138" rx="8" fill="#ffffff" stroke="#e3e6ea" stroke-width="1"/>
  <rect x="639" y="403" width="140" height="120" fill="#fbfcfd"/>
  <g transform="translate(639,403)"><rect x="25" y="28" width="90" height="64" fill="#dfe6ee" stroke="#ccd3db"/><path d="M32 82 l22-20 16 14 12-10 20 16z" fill="#1f9d6b"/><circle cx="48" cy="46" r="7" fill="#f4c14b"/></g>
  <text x="790" y="444" font-size="12" fill="#1b2430" font-weight="650" text-anchor="start">Immagine</text>
  <text x="790" y="464" font-size="10" fill="#6b7684" font-family="Consolas, monospace">&lt;image&gt;</text>

</svg>
